<svg xmlns="http://www.w3.org/2000/svg" xmlns:xlink="http://www.w3.org/1999/xlink" version="1.1" x="0px" y="0px" viewBox="-14 -8 120 120" enable-background="new 0 0 100 100" xml:space="preserve"><g><path fill="cornflowerblue" d="M62.871,22.524l3.986,2.095c0.359,0.188,0.745,0.277,1.124,0.277c0.872,0,1.716-0.471,2.148-1.297   c0.622-1.185,0.167-2.649-1.019-3.272l-3.986-2.095c-1.185-0.623-2.65-0.166-3.272,1.021C61.23,20.438,61.686,21.902,62.871,22.524   z"/><path fill="cornflowerblue" d="M69.858,17.305c0.191,1.191,1.221,2.041,2.392,2.041c0.126,0,0.256-0.01,0.385-0.029c1.322-0.213,2.222-1.454,2.01-2.777   l-0.712-4.443c-0.212-1.322-1.461-2.228-2.776-2.011c-1.322,0.211-2.223,1.454-2.01,2.775L69.858,17.305z"/><path fill="cornflowerblue" d="M77.639,20.142c0.448,0.36,0.986,0.537,1.521,0.537c0.707,0,1.408-0.309,1.887-0.901l2.827-3.501   c0.841-1.042,0.678-2.568-0.364-3.409c-1.038-0.839-2.567-0.68-3.409,0.364l-2.825,3.501   C76.435,17.774,76.596,19.301,77.639,20.142z"/><path fill="cornflowerblue" d="M80.933,27.999c-0.793-1.08-2.31-1.313-3.388-0.52c-1.08,0.792-1.312,2.311-0.52,3.389l2.662,3.627   c0.475,0.647,1.211,0.991,1.957,0.991c0.497,0,1-0.154,1.432-0.47c1.078-0.794,1.311-2.312,0.52-3.389L80.933,27.999z"/><path fill="cornflowerblue" d="M86.889,21.69l-4.496-0.045c-1.326,0.019-2.435,1.063-2.447,2.4c-0.014,1.34,1.061,2.436,2.4,2.447l4.496,0.046   c0.008,0,0.016,0,0.023,0c1.328,0,2.41-1.068,2.425-2.399C89.303,22.801,88.229,21.704,86.889,21.69z"/><path fill="cornflowerblue" d="M74.389,23.328c-1.275-0.412-2.641,0.303-3.043,1.577c-0.996,3.145-1.66,3.569-3.802,3.468   c-0.444-0.014-1.119-0.241-1.772-0.461c-1.018-0.343-2.172-0.727-3.421-0.699c-2.036,0.05-3.399,0.822-4.322,1.775l-2.384-1.652   c-1.742-1.205-4.072-1.139-5.747,0.166l-5.492,4.291c-1.452-0.224-2.939-0.339-4.453-0.339c-16.124,0-29.242,13.121-29.242,29.25   c0,16.125,13.118,29.243,29.242,29.243c16.125,0,29.244-13.118,29.244-29.243c0-5.288-1.417-10.248-3.882-14.533l2.146-6.389   c0.686-2.044-0.062-4.298-1.835-5.527l-3.169-2.197c0.004,0,0.008,0,0.012,0c0.414-0.004,1.119,0.234,1.76,0.449   c0.938,0.315,1.998,0.672,3.146,0.712c5.546,0.171,7.427-3.176,8.592-6.847C76.37,25.095,75.665,23.732,74.389,23.328z    M22.308,60.395c-0.781-0.781-0.781-2.047,0-2.828l2.225-2.225l-2.225-2.225c-0.781-0.781-0.781-2.047,0-2.828   c0.781-0.781,2.047-0.781,2.828,0l2.225,2.225l2.226-2.225c0.781-0.781,2.047-0.781,2.828,0c0.781,0.781,0.781,2.047,0,2.828   l-2.226,2.225l2.226,2.225c0.781,0.781,0.781,2.047,0,2.828C32.023,60.785,31.512,60.98,31,60.98s-1.023-0.195-1.414-0.586   l-2.226-2.225l-2.225,2.225c-0.391,0.391-0.902,0.586-1.414,0.586S22.698,60.785,22.308,60.395z M54.625,75.783   c-0.795,0.762-2.061,0.735-2.824-0.06c-0.075-0.078-5.182-5.27-11.881-5.33c-0.04,0-0.079,0-0.118,0   c-3.957,0-7.768,1.803-11.33,5.36c-0.391,0.39-0.901,0.585-1.413,0.585c-0.513,0-1.024-0.196-1.415-0.586   c-0.78-0.782-0.78-2.048,0.002-2.829c4.396-4.392,9.228-6.563,14.353-6.529c8.413,0.097,14.438,6.298,14.69,6.562   C55.452,73.754,55.424,75.02,54.625,75.783z M58.297,57.566c0.781,0.781,0.781,2.047,0,2.828c-0.391,0.391-0.902,0.586-1.414,0.586   s-1.023-0.195-1.414-0.586l-2.226-2.225l-2.225,2.225c-0.391,0.391-0.902,0.586-1.414,0.586s-1.023-0.195-1.414-0.586   c-0.781-0.781-0.781-2.047,0-2.828l2.225-2.225l-2.225-2.225c-0.781-0.781-0.781-2.047,0-2.828c0.781-0.781,2.047-0.781,2.828,0   l2.225,2.225l2.226-2.225c0.781-0.781,2.047-0.781,2.828,0c0.781,0.781,0.781,2.047,0,2.828l-2.226,2.225L58.297,57.566z"/></g></svg>